<?xml version="1.0" encoding="iso-8859-1"?>
<!-- Generator: Adobe Illustrator 19.0.0, SVG Export Plug-In . SVG Version: 6.00 Build 0)  -->
<svg version="1.1" id="Capa_1" xmlns="http://www.w3.org/2000/svg" xmlns:xlink="http://www.w3.org/1999/xlink" x="0px" y="0px"
	 viewBox="0 0 363.2 363.2" style="enable-background:new 0 0 363.2 363.2;" xml:space="preserve">
<path style="fill:#F4F4F4;" d="M83,7.6c-20.4,0-37.2,16.8-37.2,37.2v273.6c0,20.4,16.8,37.2,37.2,37.2h197.2
	c20.4,0,37.2-16.8,37.2-37.2V84L249.8,7.6H83z"/>
<polygon style="fill:#C6C6C6;" points="249.8,84 317.4,84 249.8,7.6 "/>
<polygon style="fill:#8ACC00;" points="157,201.6 127.8,172.4 103.8,196.4 156.6,249.2 252.6,152.8 229,129.2 "/>
<g>
	<path style="fill:#191919;" d="M323.8,80c-0.4-0.4-0.4-0.8-0.8-1.2L255,2.4l0,0c-0.4-0.4-1.2-0.8-1.6-1.2c-0.4,0-0.4-0.4-0.8-0.4
		c-0.8-0.4-2-0.8-2.8-0.8H83C58.2,0,38.2,20,38.2,44.8v273.6c0,24.8,20,44.8,44.8,44.8h197.2c24.8,0,44.8-20,44.8-44.8V84
		c0-0.8-0.4-2-0.4-2.8C324.2,80.8,324.2,80.4,323.8,80z M257,27.2l44,49.2h-44V27.2z M310.2,318.4c0,16.4-13.2,29.6-29.6,29.6H83
		c-16.4,0-29.6-13.2-29.6-29.6V44.8c0-16.4,13.2-29.6,29.6-29.6h159.2V84c0,4,3.2,7.6,7.6,7.6h60.4V318.4z"/>
	<path style="fill:#191919;" d="M234.6,124c-2.8-2.8-7.6-2.8-10.4,0L157,190.8l-23.6-23.6c-2.8-2.8-7.6-2.8-10.4,0l-24,24
		c-1.2,1.2-2,3.2-2,5.2s0.8,4,2,5.2l52.4,52.4c1.6,1.6,3.2,2,5.2,2s4-0.8,5.2-2l96-96c1.2-1.2,2-3.2,2-5.2s-0.8-4-2-5.2L234.6,124z
		 M156.6,238.4l-42.4-42l13.6-13.6l23.6,23.6c2.8,2.8,7.6,2.8,10.4,0l66.8-66.8l13.2,12.8L156.6,238.4z"/>
</g>
<g>
</g>
<g>
</g>
<g>
</g>
<g>
</g>
<g>
</g>
<g>
</g>
<g>
</g>
<g>
</g>
<g>
</g>
<g>
</g>
<g>
</g>
<g>
</g>
<g>
</g>
<g>
</g>
<g>
</g>
</svg>
