<?xml version="1.0" encoding="iso-8859-1"?>
<!-- Generator: Adobe Illustrator 19.0.0, SVG Export Plug-In . SVG Version: 6.00 Build 0)  -->
<svg version="1.1" id="Capa_1" xmlns="http://www.w3.org/2000/svg" xmlns:xlink="http://www.w3.org/1999/xlink" x="0px" y="0px"
	 viewBox="0 0 363.2 363.2" style="enable-background:new 0 0 363.2 363.2;" xml:space="preserve">
<path style="fill:#F4F4F4;" d="M83,7.2C62.6,7.2,45.8,24,45.8,44.4V318c0,20.4,16.8,37.2,37.2,37.2h197.2
	c20.4,0,37.2-16.8,37.2-37.2V83.6L249.8,7.2H83z"/>
<polygon style="fill:#C6C6C6;" points="249.8,83.6 317.4,83.6 249.8,7.2 "/>
<circle style="fill:#1BABEA;" cx="181.4" cy="191.6" r="62.8"/>
<path style="fill:#F4F4F4;" d="M181.4,152c-22,0-39.6,17.6-39.6,39.6s17.6,39.6,39.6,39.6s39.6-17.6,39.6-39.6
	C221.4,170,203.4,152,181.4,152z"/>
<g>
	<path style="fill:#191919;" d="M181.4,147.6c-24.4,0-44,19.6-44,44s19.6,44,44,44s44-19.6,44-44
		C225.4,167.6,205.8,147.6,181.4,147.6z M181.4,222c-16.4,0-30-13.6-30-30s13.6-30,30-30s30,13.6,30,30
		C211.8,208.4,198.2,222,181.4,222z"/>
	<path style="fill:#191919;" d="M236.6,235.2c9.6-12,15.2-27.2,15.2-43.6c0-38.8-31.6-70-70-70c-38.8,0-70,31.6-70,70
		c0,38.8,31.6,70,70,70c16.8,0,32.4-6,44.4-16l38,37.2c1.6,1.6,3.2,2,5.2,2s4-0.8,5.2-2.4c2.8-2.8,2.8-7.6,0-10.4L236.6,235.2z
		 M181.4,246.8c-30.4,0-55.2-24.8-55.2-55.2c0-30.4,24.8-55.2,55.2-55.2s55.2,24.8,55.2,55.2C236.6,222,212.2,246.8,181.4,246.8z"/>
	<path style="fill:#191919;" d="M323.8,80c-0.4-0.4-0.4-0.8-0.8-1.2L255,2.4l0,0c-0.4-0.4-1.2-0.8-1.6-1.2c-0.4,0-0.4-0.4-0.8-0.4
		c-0.8-0.4-2-0.8-2.8-0.8H83C58.2,0,38.2,20,38.2,44.8v273.6c0,24.8,20,44.8,44.8,44.8h197.2c24.8,0,44.8-20,44.8-44.8V83.6
		c0-0.8-0.4-2-0.4-2.8C324.2,80.4,324.2,80,323.8,80z M257,26.8L301,76h-44V26.8z M310.2,318c0,16.4-13.2,29.6-29.6,29.6H83
		c-16.4,0-29.6-13.2-29.6-29.6V44.4C53.4,28,66.6,14.8,83,14.8h159.2v68.8c0,4,3.2,7.6,7.6,7.6h60.4V318z"/>
</g>
<g>
</g>
<g>
</g>
<g>
</g>
<g>
</g>
<g>
</g>
<g>
</g>
<g>
</g>
<g>
</g>
<g>
</g>
<g>
</g>
<g>
</g>
<g>
</g>
<g>
</g>
<g>
</g>
<g>
</g>
</svg>
